<?xml version="1.0" encoding="UTF-8"?>
<svg version="1.1" xmlns="http://www.w3.org/2000/svg" width="1024" height="1024">
<path d="M0 0 C337.92 0 675.84 0 1024 0 C1024 337.92 1024 675.84 1024 1024 C686.08 1024 348.16 1024 0 1024 C0 686.08 0 348.16 0 0 Z " fill="#FAFAFC" transform="translate(0,0)"/>
<path d="M0 0 C5.75413015 4.58753938 11.01481999 9.58900349 16.1015625 14.8984375 C19.01659451 17.88634531 21.99585213 20.68532917 25.1640625 23.3984375 C28.20463043 26.02566938 30.5902369 28.7592805 33.1015625 31.8984375 C35.1961507 33.76164677 37.32765893 35.56626503 39.4921875 37.34765625 C40.02328125 37.85941406 40.554375 38.37117188 41.1015625 38.8984375 C41.1015625 39.5584375 41.1015625 40.2184375 41.1015625 40.8984375 C41.66991766 41.141926 42.23827282 41.38541449 42.82385087 41.63628143 C45.52822334 43.13486452 47.35777529 44.90514151 49.54494858 47.09293461 C50.43421185 47.97759909 51.32347513 48.86226357 52.23968577 49.77373606 C53.22236062 50.76142599 54.20494165 51.74920928 55.18743896 52.73707581 C56.23404064 53.78208958 57.28107981 54.82666534 58.32851911 55.87083954 C61.20859793 58.74449526 64.08238752 61.62437002 66.95520139 64.5052861 C70.05313051 67.60978489 73.15681025 70.70852513 76.25978088 73.8079834 C82.33809095 79.88124799 88.41104012 85.95984629 94.48220244 92.04025526 C101.54619973 99.11462538 108.61540984 106.18377678 115.68483844 113.25271868 C128.29287028 125.86024972 140.8960617 138.47260851 153.49658203 151.08764648 C165.73676864 163.34192837 177.98045971 175.59269464 190.22802734 187.83959961 C190.98268633 188.59421864 191.73734532 189.34883767 192.51487276 190.12632395 C193.64486406 191.25625472 193.64486406 191.25625472 194.79768348 192.40901238 C208.72477486 206.33541482 222.6485779 220.26510084 236.57084446 234.19632657 C241.5028923 239.13139673 246.43592189 244.06548426 251.36925507 248.99926949 C257.375078 255.0057729 263.37901633 261.0141529 269.38057247 267.0249197 C272.44560648 270.0945863 275.51143886 273.16344423 278.57941628 276.2301693 C281.38295409 279.03261814 284.1841986 281.83733746 286.98355821 284.64395975 C288.00140054 285.66362665 289.02010219 286.68243657 290.03970692 287.70034117 C291.41594071 289.0745326 292.78884851 290.45205264 294.16154099 291.82978153 C294.92792664 292.59687162 295.6943123 293.3639617 296.48392177 294.15429693 C298.1015625 295.8984375 298.1015625 295.8984375 298.1015625 296.8984375 C277.6415625 296.8984375 257.1815625 296.8984375 236.1015625 296.8984375 C236.11727295 302.67053711 236.1329834 308.44263672 236.14916992 314.38964844 C236.19898624 333.50827244 236.23221279 352.62689908 236.25699902 371.74557114 C236.27242129 383.33171667 236.29342136 394.9178004 236.32788086 406.50390625 C236.35792605 416.61069606 236.37717115 426.71744107 236.38382798 436.8242743 C236.38771479 442.16818178 236.39675089 447.51196119 236.41875267 452.85582733 C236.43935759 457.90206643 236.44534866 462.94812666 236.44088554 467.99440384 C236.44170015 469.83077853 236.44752104 471.66716021 236.45917892 473.50349808 C236.55509873 489.41470151 235.36114404 505.57008632 230.5390625 520.8359375 C230.166604 522.0415332 230.166604 522.0415332 229.78662109 523.27148438 C225.09297178 537.71777282 218.23627301 551.74367984 209.1015625 563.8984375 C208.49054687 564.71828125 207.87953125 565.538125 207.25 566.3828125 C205.26391542 568.9491934 203.20926209 571.43088677 201.1015625 573.8984375 C200.67391602 574.39988281 200.24626953 574.90132812 199.80566406 575.41796875 C181.2119004 596.99040874 156.13326848 612.92872234 128.1015625 618.8984375 C126.4515625 618.8984375 124.8015625 618.8984375 123.1015625 618.8984375 C123.1015625 599.4284375 123.1015625 579.9584375 123.1015625 559.8984375 C128.3815625 557.2584375 133.6615625 554.6184375 139.1015625 551.8984375 C153.3096788 541.01834844 164.09835294 528.60892364 170.3515625 511.7109375 C170.59801514 511.06495605 170.84446777 510.41897461 171.09838867 509.75341797 C172.64632227 505.31989644 173.41628221 500.98558587 173.9908905 496.32769775 C174.74102696 490.42737274 175.60955297 484.55471606 176.54658508 478.68133545 C181.46237155 447.46552876 184.57488162 416.1929681 186.4140625 384.6484375 C186.48996597 383.38682014 186.56586944 382.12520277 186.64407301 380.82535458 C190.49888692 314.95672144 184.14885836 261.02677236 139.79413893 211.05662131 C122.85024924 192.13945951 104.70562822 174.58723731 85.9140625 157.5234375 C84.83889949 156.54488472 83.76375649 155.56630994 82.68863344 154.58771324 C58.54536857 132.63825021 33.77396855 111.48490864 8.08340931 91.35692978 C7.30560549 90.7472662 6.52780167 90.13760262 5.72642803 89.50946438 C4.29788544 88.39273506 2.86662458 87.27946918 1.4319458 86.17063415 C-2.26908835 83.28726926 -5.64699585 80.29786646 -8.8984375 76.8984375 C-9.67477539 76.10115234 -10.45111328 75.30386719 -11.25097656 74.48242188 C-12.4454541 73.24975586 -12.4454541 73.24975586 -13.6640625 71.9921875 C-15.49189739 70.12731977 -17.3200313 68.26274509 -19.1484375 66.3984375 C-20.05207031 65.46128906 -20.95570313 64.52414062 -21.88671875 63.55859375 C-27.71686592 57.64455957 -33.53284409 51.88395466 -41.9609375 50.3359375 C-49.71357082 51.82048431 -55.70332286 56.7901781 -61.67430115 61.64558411 C-62.52167782 62.32693721 -63.36905449 63.00829032 -64.24210924 63.71029049 C-67.07109578 65.994549 -69.88752242 68.29350615 -72.70092773 70.59692383 C-73.69158651 71.40652282 -74.68224528 72.21612181 -75.70292401 73.05025411 C-102.71402466 95.18353617 -128.83337041 118.31140941 -154.4846524 142.00199687 C-156.33141977 143.70676714 -158.18043263 145.40907548 -160.02970219 147.11113071 C-219.16454211 201.60365583 -269.28560601 252.34258727 -273.44818908 338.07995981 C-274.10060797 355.18170004 -273.37570763 372.20687799 -272.2734375 389.2734375 C-272.19234788 390.56613823 -272.11125827 391.85883897 -272.02771139 393.19071245 C-269.9037312 426.38765643 -265.9372044 459.18938113 -259.8984375 491.8984375 C-259.19973278 491.89615918 -258.50102805 491.89388086 -257.78115046 491.89153349 C-216.36234222 491.75724 -174.94355927 491.65430555 -133.52457706 491.59204552 C-128.55040127 491.58454136 -123.57622592 491.57677542 -118.60205078 491.56884766 C-117.61178978 491.56727379 -116.62152878 491.56569993 -115.60125987 491.56407838 C-99.5709613 491.53797661 -83.54079194 491.49067251 -67.51057 491.43552072 C-51.05980925 491.37939448 -34.60911613 491.34608118 -18.15826356 491.33390653 C-8.00865508 491.32567733 2.14058816 491.29969453 12.2900842 491.2509387 C19.25173644 491.2192018 26.21320009 491.2096417 33.17491941 491.21742924 C37.1904871 491.22126906 41.20541695 491.21541929 45.22087097 491.18320465 C48.9016064 491.15389175 52.58127836 491.15260381 56.26206394 491.17304413 C58.21519942 491.17675861 60.16832336 491.1509812 62.12127531 491.12394965 C70.14248465 491.20540483 75.87260098 492.66020984 82.1015625 497.8984375 C90.1246122 507.70720397 89.88621967 518.8376696 89.1015625 530.8984375 C88.06479237 538.57996168 84.77794861 543.68568558 79.1015625 548.8984375 C74.23195391 552.40908555 70.20779332 553.02334878 64.28727531 553.02427864 C63.09212362 553.02688639 61.89697193 553.02949414 60.66560352 553.03218091 C59.35104683 553.02995018 58.03649013 553.02771946 56.68209839 553.02542114 C55.2725429 553.02657308 53.86298771 553.0281611 52.45343316 553.03014839 C48.57507209 553.03433241 44.69673556 553.0322551 40.8183744 553.02916217 C36.63673723 553.02690425 32.45510434 553.03038985 28.27346802 553.03314209 C20.0756991 553.03759618 11.87793932 553.03662444 3.68017004 553.03372945 C-2.98910854 553.03147185 -9.65838456 553.03116445 -16.32766342 553.03225327 C-17.27664872 553.0324065 -18.22563401 553.03255973 -19.20337643 553.03271761 C-21.13135514 553.03303734 -23.05933384 553.03336155 -24.98731254 553.0336902 C-43.08501331 553.03654449 -61.18270902 553.03325989 -79.28040896 553.02788983 C-94.78280774 553.02343193 -110.28519902 553.02418944 -125.78759766 553.02880859 C-143.79846281 553.03417269 -161.80932351 553.03625918 -179.82018936 553.03319633 C-181.74538986 553.0328778 -183.67059036 553.03256343 -185.59579086 553.03225327 C-186.54293203 553.03209899 -187.49007319 553.03194471 -188.4659156 553.03178576 C-195.11399818 553.03092536 -201.76207792 553.03237342 -208.41016006 553.03473282 C-216.53206818 553.03755186 -224.65396665 553.03674889 -232.77587368 553.03145207 C-236.91373126 553.02884173 -241.05157281 553.0277641 -245.18943024 553.03110123 C-297.91119808 553.06981521 -297.91119808 553.06981521 -307.8984375 544.8984375 C-316.11437092 536.62194438 -318.05618591 528.89732864 -318.01869202 517.56547546 C-318.01954644 516.6219863 -318.02040087 515.67849713 -318.02128118 514.70641738 C-318.02292893 511.5434354 -318.0174261 508.3805064 -318.01196289 505.2175293 C-318.01168084 502.95081076 -318.0118391 500.68409214 -318.0124054 498.41737366 C-318.01269268 492.26083331 -318.00680709 486.10431238 -317.99983144 479.94777656 C-317.99358641 473.51489342 -317.99299319 467.08200985 -317.99180603 460.64912415 C-317.9890496 449.85095849 -317.98280048 439.05280081 -317.97387695 428.25463867 C-317.96469586 417.13321976 -317.95761843 406.01180279 -317.95336914 394.89038086 C-317.95310642 394.20468549 -317.95284369 393.51899013 -317.95257301 392.81251612 C-317.95126796 389.37253291 -317.95000425 385.93254969 -317.94876111 382.49256647 C-317.9383969 353.96118436 -317.91996312 325.42981353 -317.8984375 296.8984375 C-338.6884375 296.8984375 -359.4784375 296.8984375 -380.8984375 296.8984375 C-374.1484396 289.02343995 -374.1484396 289.02343995 -371.28733826 286.16708374 C-370.63842621 285.51679703 -369.98951416 284.86651031 -369.32093811 284.19651794 C-368.63035812 283.50953323 -367.93977814 282.82254852 -367.22827148 282.11474609 C-366.48440186 281.37073044 -365.74053223 280.62671478 -364.97412109 279.8601532 C-362.53328932 277.42001373 -360.08894138 274.9834294 -357.64453125 272.546875 C-355.93850675 270.84271803 -354.23270472 269.13833832 -352.52711487 267.43374634 C-348.04815958 262.95859754 -343.56621104 258.48645838 -339.08361816 254.01495361 C-334.52594516 249.46750597 -329.97109433 244.91723353 -325.41601562 240.3671875 C-318.05937481 233.01932514 -310.70100459 225.67320003 -303.34040833 218.32929993 C-302.08144904 217.07315664 -300.82269334 215.81680927 -299.56419182 214.56020737 C-298.06571809 213.06531796 -296.56435768 211.57332348 -295.06263733 210.08169556 C-292.09807298 207.09102487 -289.39992999 203.89349467 -286.66796875 200.69140625 C-286.08402344 200.09972656 -285.50007813 199.50804687 -284.8984375 198.8984375 C-284.2384375 198.8984375 -283.5784375 198.8984375 -282.8984375 198.8984375 C-282.49878784 198.00983032 -282.49878784 198.00983032 -282.09106445 197.10327148 C-280.87398532 194.85323225 -279.63544122 193.40512138 -277.81640625 191.62109375 C-277.21376953 191.02490234 -276.61113281 190.42871094 -275.99023438 189.81445312 C-275.04760742 188.89696289 -275.04760742 188.89696289 -274.0859375 187.9609375 C-273.46912109 187.35314453 -272.85230469 186.74535156 -272.21679688 186.11914062 C-271.0073822 184.92771937 -269.79576763 183.73852643 -268.58178711 182.55175781 C-267.07545111 181.07229337 -265.58724311 179.57442417 -264.1015625 178.07421875 C-261.8984375 175.8984375 -261.8984375 175.8984375 -259.4609375 174.0234375 C-256.64659932 171.68959608 -254.50076018 169.14040477 -252.23046875 166.2890625 C-251.79089844 165.83015625 -251.35132813 165.37125 -250.8984375 164.8984375 C-250.2384375 164.8984375 -249.5784375 164.8984375 -248.8984375 164.8984375 C-248.6303125 164.2590625 -248.3621875 163.6196875 -248.0859375 162.9609375 C-246.8984375 160.8984375 -246.8984375 160.8984375 -243.8984375 159.8984375 C-243.5684375 158.9084375 -243.2384375 157.9184375 -242.8984375 156.8984375 C-241.33203125 155.390625 -241.33203125 155.390625 -239.3359375 153.7734375 C-235.46442773 150.49861203 -232.15266227 146.95494386 -228.85546875 143.109375 C-226.63255561 140.59805996 -224.27667695 138.26357521 -221.8984375 135.8984375 C-220.03035816 134.02645353 -218.16254814 132.1542041 -216.29507446 130.28161621 C-215.16796995 129.15157962 -214.04085881 128.02154965 -212.91374207 126.89152527 C-212.31708426 126.29331656 -211.72042645 125.69510784 -211.1056881 125.07877159 C-197.35115892 111.2888291 -183.59087412 97.50464186 -169.82732582 83.72370148 C-161.87402534 75.76007973 -153.92262044 67.79458212 -145.97558594 59.82470703 C-139.0325093 52.86168578 -132.08591476 45.9021967 -125.13508832 38.94691133 C-121.45973083 35.26895039 -117.78614455 31.58925926 -114.11677933 27.90531921 C-110.66555811 24.44049811 -107.20964475 20.98042701 -103.75011635 17.52390099 C-102.48382259 16.25705835 -101.21923354 14.98850901 -99.95651436 13.71810341 C-98.22754979 11.97913396 -96.49245741 10.24650862 -94.75576782 8.51525879 C-94.01522437 7.76597681 -94.01522437 7.76597681 -93.25972044 7.00155783 C-68.60804448 -17.44308175 -27.95933937 -20.2724051 0 0 Z " fill="#003A41" transform="translate(553.8984375,219.1015625)"/>
<path d="M0 0 C0.62116699 0.50740723 1.24233398 1.01481445 1.88232422 1.53759766 C3.609375 3.015625 3.609375 3.015625 6.25 5.75 C6.25 10.25085108 6.25 10.25085108 3.62304688 12.87866211 C3.04824585 13.46284409 2.47344482 14.04702606 1.88122559 14.64891052 C1.25010864 15.26879349 0.6189917 15.88867645 -0.03125 16.52734375 C-0.67815796 17.17570694 -1.32506592 17.82407013 -1.99157715 18.49208069 C-3.36554488 19.8643872 -4.74447954 21.23173587 -6.12792969 22.59448242 C-8.22619864 24.6640245 -10.30542403 26.75131977 -12.3828125 28.84179688 C-13.72285198 30.17559163 -15.06396541 31.50830843 -16.40625 32.83984375 C-17.0211731 33.45770248 -17.63609619 34.07556122 -18.26965332 34.71214294 C-22.23910759 38.59768436 -26.52678255 42.66021343 -31.75 44.75 C-34.96811937 44.29906196 -36.55018791 43.28801107 -38.875 41.0625 C-55.70805598 26.12360956 -75.8149443 23.51100832 -97.44091797 24.45996094 C-105.05910943 25.12769087 -111.84501163 27.5859942 -118.75 30.75 C-119.77867187 31.19472656 -120.80734375 31.63945312 -121.8671875 32.09765625 C-139.98750235 40.90115199 -150.96673191 58.57856004 -157.921875 76.82421875 C-163.40129185 96.18310188 -160.67560388 117.73197894 -151 135.1875 C-147.21655503 141.38439955 -142.90673806 146.65549843 -137.75 151.75 C-137.06421875 152.45769531 -136.3784375 153.16539062 -135.671875 153.89453125 C-122.01376448 167.12266421 -102.70953829 172.14642467 -84.1640625 171.890625 C-73.12617103 171.43597501 -63.5482417 168.92351005 -53.77905273 163.80517578 C-51.75 162.75 -51.75 162.75 -49.30102539 161.75341797 C-46.44800573 160.35018255 -44.75742399 159.23439794 -42.75 156.75 C-41.47805839 151.25854041 -41.58375103 146.0145576 -41.6875 140.375 C-41.7184375 132.640625 -41.7184375 132.640625 -41.75 124.75 C-59.9 124.75 -78.05 124.75 -96.75 124.75 C-96.75 107.92 -96.75 91.09 -96.75 73.75 C-70.74612195 73.58956476 -70.74612195 73.58956476 -59.66992188 73.5546875 C-52.10917955 73.53076718 -44.54863081 73.50245575 -36.98803711 73.44824219 C-30.89316879 73.40481169 -24.79850804 73.38086845 -18.70349693 73.37049103 C-16.37703877 73.36309471 -14.05059209 73.34865163 -11.72422218 73.32707977 C-8.46799711 73.29808382 -5.21263203 73.29404252 -1.95629883 73.29589844 C-0.99244766 73.28151733 -0.0285965 73.26713623 0.96446228 73.25231934 C5.26000693 73.27884764 7.60376487 73.35004083 11.32539368 75.65338135 C15.02115677 79.6794545 14.43158765 83.63494319 14.47460938 88.84619141 C14.48599945 89.78948303 14.49738953 90.73277466 14.50912476 91.70465088 C14.61981887 101.57986814 14.66721621 111.45583591 14.70996094 121.33154297 C14.73222994 126.01681169 14.7739882 130.70128314 14.83300781 135.38623047 C14.90412769 141.04260307 14.94079828 146.69822566 14.95307922 152.35502243 C14.96347535 154.50880427 14.98588881 156.66256365 15.02067566 158.81608963 C15.06695116 161.83742534 15.06887378 164.85582904 15.06054688 167.87744141 C15.08414276 168.76190948 15.10773865 169.64637756 15.13204956 170.55764771 C15.05113451 176.64534563 13.36589272 179.65079553 9.1006546 183.96866417 C8.48993858 184.55650499 7.87922256 185.14434582 7.25 185.75 C6.05952407 187.03892439 4.87167163 188.33028127 3.6875 189.625 C-14.40458785 207.36983088 -38.33413368 217.49819008 -62.75 222.75 C-63.77996094 222.976875 -64.80992187 223.20375 -65.87109375 223.4375 C-100.63669038 229.94757271 -137.64046132 220.85443796 -166.58984375 201.08203125 C-172.6587973 196.6034586 -178.03422301 191.46984252 -183.359375 186.13671875 C-184.68945559 184.80881149 -186.03182737 183.49193326 -187.41796875 182.22265625 C-197.94495856 172.45339322 -204.98492163 159.73406905 -210.75 146.75 C-211.03359375 146.11900391 -211.3171875 145.48800781 -211.609375 144.83789062 C-225.08101099 114.17720967 -223.7111667 79.19007288 -211.82714844 48.32958984 C-207.11942611 37.05538448 -200.72956213 26.97334003 -192.75 17.75 C-191.41361973 16.02318706 -190.08031975 14.29398621 -188.75 12.5625 C-185.13231123 8.05094649 -181.23349838 4.38029533 -176.75 0.75 C-176.0590625 0.14929688 -175.368125 -0.45140625 -174.65625 -1.0703125 C-124.37956525 -43.59887802 -49.80845774 -41.49652135 0 0 Z " fill="#003A41" transform="translate(602.75,434.25)"/>
<path d="M0 0 C8.91 0 17.82 0 27 0 C27 7.92 27 15.84 27 24 C26.01 24.33 25.02 24.66 24 25 C23.319375 24.2575 22.63875 23.515 21.9375 22.75 C14.63918857 15.64722874 8.44018127 15.42067598 -1.44578552 15.48101807 C-2.82126894 15.47513865 -4.19674579 15.46750943 -5.57221085 15.458287 C-9.34183371 15.43805343 -13.11107966 15.44257353 -16.88073194 15.45119452 C-20.94953794 15.4561425 -25.01824965 15.43805058 -29.08702087 15.42277527 C-36.13308821 15.39946713 -43.17905263 15.39071455 -50.22515678 15.39188385 C-60.41258055 15.39355336 -70.59986716 15.37321559 -80.78725434 15.34752855 C-97.31608931 15.30644848 -113.8448996 15.28313487 -130.3737793 15.27099609 C-146.42881644 15.25916726 -162.48380714 15.23896984 -178.53881836 15.20751953 C-179.52866183 15.20558343 -180.51850529 15.20364733 -181.53834402 15.20165256 C-186.50416151 15.19188796 -191.46997866 15.18195885 -196.43579566 15.17194796 C-237.62384134 15.08912723 -278.81188781 15.03514061 -320 15 C-320 14.67 -320 14.34 -320 14 C-214.4 13.67 -108.8 13.34 0 13 C0 8.71 0 4.42 0 0 Z " fill="#E4EAEC" transform="translate(614,696)"/>
<path d="M0 0 C-0.66 0.66 -1.32 1.32 -2 2 C-2.33 5.96 -2.66 9.92 -3 14 C-18.84 14.495 -18.84 14.495 -35 15 C-28.04998791 8.04998791 -10.43001108 -3.47667036 0 0 Z M-37 15 C-36.34 15.33 -35.68 15.66 -35 16 C-35.99 16 -36.98 16 -38 16 C-37.67 15.67 -37.34 15.34 -37 15 Z " fill="#F4F4F7" transform="translate(505,459)"/>
<path d="M0 0 C8.91 0 17.82 0 27 0 C27 1.65 27 3.3 27 5 C18.09 5 9.18 5 0 5 C0 3.35 0 1.7 0 0 Z " fill="#F4F4F7" transform="translate(280,773)"/>
<path d="M0 0 C-0.33 0.99 -0.66 1.98 -1 3 C-1.66 3 -2.32 3 -3 3 C-3.2475 3.598125 -3.495 4.19625 -3.75 4.8125 C-5.16370012 7.28647521 -6.65055383 8.43370255 -9 10 C-9.66 9.67 -10.32 9.34 -11 9 C-9.54782324 7.49403892 -8.08807139 5.99537896 -6.625 4.5 C-5.40683594 3.24703125 -5.40683594 3.24703125 -4.1640625 1.96875 C-2 0 -2 0 0 0 Z " fill="#203E46" transform="translate(346,343)"/>
<path d="M0 0 C0.66 0.33 1.32 0.66 2 1 C1.360625 1.268125 0.72125 1.53625 0.0625 1.8125 C-2.33131686 2.88667752 -2.33131686 2.88667752 -3 6 C-6.0625 7.1875 -6.0625 7.1875 -9 8 C-9.33 7.34 -9.66 6.68 -10 6 C-8.3811004 4.96951963 -6.75467511 3.95085322 -5.125 2.9375 C-4.22007812 2.36902344 -3.31515625 1.80054688 -2.3828125 1.21484375 C-1.20332031 0.61349609 -1.20332031 0.61349609 0 0 Z " fill="#E7EEEF" transform="translate(584,639)"/>
<path d="M0 0 C0.33 0 0.66 0 1 0 C0.67 2.31 0.34 4.62 0 7 C-0.66 7 -1.32 7 -2 7 C-3.6446674 9.46326712 -3.6446674 9.46326712 -5 12 C-5.33 11.34 -5.66 10.68 -6 10 C-4.8203125 7.6171875 -4.8203125 7.6171875 -3.125 4.875 C-2.57070313 3.96492188 -2.01640625 3.05484375 -1.4453125 2.1171875 C-0.96835937 1.41851562 -0.49140625 0.71984375 0 0 Z " fill="#ECF2F4" transform="translate(455,489)"/>
<path d="M0 0 C0 3.58912412 -0.66436554 4.10857029 -3 6.6875 C-3.556875 7.31011719 -4.11375 7.93273437 -4.6875 8.57421875 C-5.120625 9.04472656 -5.55375 9.51523437 -6 10 C-6.99 9.67 -7.98 9.34 -9 9 C-8.01 8.67 -7.02 8.34 -6 8 C-5.31513275 6.67592331 -4.65129797 5.34090759 -4 4 C-2.70529025 2.62913085 -1.37849103 1.28659163 0 0 Z " fill="#274349" transform="translate(277,410)"/>
<path d="M0 0 C0.33 0.66 0.66 1.32 1 2 C-0.22934015 5.68802044 -1.93859378 6.72356973 -5 9 C-5.66 8.67 -6.32 8.34 -7 8 C-4.69 5.36 -2.38 2.72 0 0 Z " fill="#EBF1F3" transform="translate(463,479)"/>
<path d="M0 0 C0.33 0.99 0.66 1.98 1 3 C-1.31 4.98 -3.62 6.96 -6 9 C-6.66 8.67 -7.32 8.34 -8 8 C-5.36 5.36 -2.72 2.72 0 0 Z " fill="#1C3840" transform="translate(358,329)"/>
<path d="M0 0 C0.66 0.33 1.32 0.66 2 1 C0.25 3.0625 0.25 3.0625 -2 5 C-4.25 4.75 -4.25 4.75 -6 4 C-4.02 2.68 -2.04 1.36 0 0 Z " fill="#04242D" transform="translate(451,418)"/>
</svg>
