<svg version="1.1" xmlns="http://www.w3.org/2000/svg" width="400" height="400">
<path d="M0 0 C20.93747514 -0.70198532 38.24374878 8.05301876 53.18579102 21.95678711 C59.19862568 27.63198417 64.99177182 33.53178683 70.8046875 39.41015625 C79.40974469 48.27247141 79.40974469 48.27247141 88.50390625 56.6171875 C94.37758628 61.60973769 99.7257165 67.1830135 105.16381836 72.63891602 C107.1126562 74.59311249 109.06678022 76.54190772 111.02148438 78.49023438 C116.4523707 83.91921315 121.80057539 89.32484167 126.75705445 95.19573689 C128.78417363 97.41093435 130.95079242 99.35957399 133.20402336 101.34428406 C138.08905468 105.70575544 142.76510163 110.22989087 147.38796997 114.86645508 C148.21730824 115.69423336 149.04664652 116.52201164 149.90111625 117.37487411 C152.17204174 119.64253234 154.44075327 121.91237714 156.70848465 124.18322873 C159.16596946 126.64299522 161.62635371 129.09985883 164.08634949 131.55711365 C168.89043046 136.35676913 173.69183009 141.15909811 178.49224408 145.96242088 C182.39129132 149.8637325 186.2913208 153.76405969 190.1920433 157.66369629 C190.74853601 158.22003577 191.30502873 158.77637524 191.87838485 159.34957349 C193.00900428 160.47987319 194.13962595 161.61017064 195.27024983 162.74046588 C205.84587873 173.31325006 216.41845191 183.88908561 226.98996674 194.46598315 C236.06676634 203.54726101 245.14620012 212.62589831 254.22753906 221.70263672 C264.78222313 232.25197634 275.33529257 242.80292681 285.88576686 253.35647678 C287.00900559 254.48003406 288.13224642 255.60358926 289.25548935 256.72714233 C289.80812564 257.2799329 290.36076192 257.83272346 290.93014476 258.40226525 C294.83115998 262.30414518 298.73333697 266.20486094 302.63595963 270.10513306 C307.3825687 274.84894589 312.1274089 279.59451933 316.86994751 284.34240168 C319.2909777 286.76606955 321.71281825 289.18891322 324.13681221 291.60961723 C326.75726252 294.22736054 329.37465402 296.84812296 331.99124146 299.46972656 C332.76650087 300.24275525 333.54176028 301.01578394 334.34051239 301.81223774 C335.03450792 302.50884101 335.72850344 303.20544428 336.44352913 303.92315674 C337.04869869 304.52848866 337.65386826 305.13382057 338.27737629 305.75749588 C339.5546875 307.16015625 339.5546875 307.16015625 339.5546875 308.16015625 C319.7546875 308.16015625 299.9546875 308.16015625 279.5546875 308.16015625 C279.57039795 313.93225586 279.5861084 319.70435547 279.60229492 325.65136719 C279.65211124 344.76999119 279.68533779 363.88861783 279.71012402 383.00728989 C279.72554629 394.59343542 279.74654636 406.17951915 279.78100586 417.765625 C279.81105105 427.87241481 279.83029615 437.97915982 279.83695298 448.08599305 C279.84083979 453.42990053 279.84987589 458.77367994 279.87187767 464.11754608 C279.89248259 469.16378518 279.89847366 474.20984541 279.89401054 479.25612259 C279.89482515 481.09249728 279.90064604 482.92887896 279.91230392 484.76521683 C280.00822373 500.67642026 278.81426904 516.83180507 273.9921875 532.09765625 C273.619729 533.30325195 273.619729 533.30325195 273.23974609 534.53320312 C268.54667352 548.97771645 261.69155269 563.0086838 252.5546875 575.16015625 C251.93207031 575.99160156 251.30945313 576.82304688 250.66796875 577.6796875 C242.34070267 588.40547646 233.38889557 597.95048308 222.5546875 606.16015625 C221.83667969 606.72863281 221.11867188 607.29710937 220.37890625 607.8828125 C206.71339831 618.15014795 186.16929754 630.16015625 168.5546875 630.16015625 C168.5546875 611.35015625 168.5546875 592.54015625 168.5546875 573.16015625 C173.8346875 570.52015625 179.1146875 567.88015625 184.5546875 565.16015625 C186.2046875 563.84015625 187.8546875 562.52015625 189.5546875 561.16015625 C190.2146875 561.16015625 190.8746875 561.16015625 191.5546875 561.16015625 C191.5546875 560.50015625 191.5546875 559.84015625 191.5546875 559.16015625 C192.65943981 558.15474134 193.81641993 557.20651797 194.9921875 556.28515625 C208.50642397 544.73227799 217.35270857 527.07558998 219.47332764 509.51716614 C220.21286535 503.61366646 221.06869394 497.73768027 221.99298096 491.86039734 C226.88151102 460.31577972 229.97530995 428.71387395 231.8046875 396.84765625 C231.91789125 394.93673313 231.91789125 394.93673313 232.03338194 392.98720551 C235.83523905 327.01401324 229.88850216 272.53871848 185.44535377 222.38774632 C168.6097954 203.56325957 150.56643962 186.11503807 131.8671875 169.16015625 C130.79805803 168.18849515 129.72894909 167.21681146 128.65986061 166.24510527 C104.66164296 144.45924042 80.0317068 123.47711793 54.47307205 103.53295422 C53.69959897 102.92910277 52.92612589 102.32525132 52.12921423 101.70310134 C50.70876104 100.59717428 49.28555857 99.49476406 47.85889775 98.39685661 C44.16203433 95.52849279 40.79752161 92.55083026 37.5546875 89.16015625 C36.71252686 88.29704834 35.87036621 87.43394043 35.00268555 86.54467773 C34.11621338 85.63274658 33.22974121 84.72081543 32.31640625 83.78125 C30.80928027 82.24461154 29.30021949 80.70990232 27.7902832 79.17602539 C26.75995177 78.12554554 25.73323451 77.07150835 24.71020508 76.01391602 C15.31376431 65.89359458 15.31376431 65.89359458 2.5546875 61.66015625 C-5.65277454 62.2698954 -12.07372305 67.90572336 -18.22117615 72.8938446 C-19.06855282 73.57378375 -19.91592949 74.25372289 -20.78898424 74.95426625 C-23.61796702 77.23384212 -26.43440886 79.52812082 -29.24780273 81.8269043 C-30.73379089 83.03893394 -30.73379089 83.03893394 -32.24979901 84.27544904 C-59.26711833 106.37166334 -85.38514403 129.47171735 -111.0315274 153.14000213 C-112.87828411 154.84347919 -114.72730222 156.54447482 -116.57657719 158.24521732 C-175.99572017 212.95804505 -225.85016213 263.80558353 -229.99506408 349.88618571 C-230.64753988 367.13249761 -229.9220164 384.31942448 -228.8203125 401.53515625 C-228.73922288 402.83980442 -228.65813327 404.14445258 -228.57458639 405.48863554 C-226.4499035 439.00382546 -222.48160538 472.12770092 -216.4453125 505.16015625 C-215.74872375 505.15825765 -215.05213499 505.15635905 -214.33443749 505.15440291 C-173.04087096 505.04249115 -131.74732204 504.95671267 -90.45363433 504.9048296 C-85.49447992 504.89857614 -80.53532582 504.89210452 -75.57617188 504.88549805 C-74.58890149 504.88418649 -73.6016311 504.88287494 -72.58444344 504.88152365 C-56.60266463 504.85977232 -40.62097584 504.82035227 -24.63925041 504.77439227 C-8.23820776 504.72762008 8.16278778 504.69985923 24.56389439 504.68971378 C34.68274509 504.68285621 44.80134138 504.66120414 54.92011376 504.62057392 C61.86072892 504.59412616 68.80121273 504.58615987 75.74187462 504.59264936 C79.74521471 504.5958491 83.74811048 504.59097484 87.75137138 504.56412888 C91.4209018 504.53970127 95.08969139 504.53862927 98.75925674 504.55566178 C100.70640759 504.55875698 102.65355042 504.53727703 104.60057342 504.51474971 C113.22513935 504.58795167 120.52791716 506.08376022 126.7734375 512.40625 C127.19625 513.12941406 127.6190625 513.85257813 128.0546875 514.59765625 C128.498125 515.31824219 128.9415625 516.03882813 129.3984375 516.78125 C134.10031406 526.45504334 134.26937933 539.02254085 131.1171875 549.28515625 C128.69912546 554.9215023 124.5499522 558.71958719 119.5546875 562.16015625 C116.30880281 563.24211781 113.95982776 563.28770009 110.5443716 563.29158401 C109.28009285 563.29542516 108.0158141 563.2992663 106.71322387 563.30322385 C105.30225967 563.30244355 103.89129551 563.30156476 102.48033142 563.30059814 C100.98756587 563.30318103 99.49480101 563.30619397 98.00203711 563.30960155 C93.88934654 563.31768412 89.77667341 563.31946182 85.66397583 563.32019901 C81.23229828 563.32204744 76.80062983 563.32959382 72.36895752 563.33633423 C62.67249322 563.34992806 52.97603305 563.3559442 43.2795608 563.36034489 C37.22549715 563.36310613 31.17143509 563.36734332 25.11737251 563.37184906 C8.35773157 563.38404421 -8.4019081 563.39434232 -25.16155338 563.39772415 C-26.23467528 563.39794372 -27.30779718 563.39816328 -28.41343793 563.3983895 C-29.48914516 563.39860778 -30.56485238 563.39882606 -31.6731568 563.39905095 C-33.85298669 563.39949442 -36.03281659 563.39994098 -38.21264648 563.40039062 C-39.83455681 563.40072277 -39.83455681 563.40072277 -41.48923301 563.40106162 C-59.0033593 563.40500824 -76.51744396 563.42245699 -94.03155417 563.44575015 C-112.01019639 563.46946816 -129.98881772 563.48192625 -147.96747583 563.48309207 C-158.06286952 563.4840087 -168.15820898 563.48975771 -178.25358772 563.50791168 C-186.85190259 563.52331887 -195.45014648 563.52842955 -204.04847253 563.52017358 C-208.43448784 563.51626897 -212.82036026 563.51718734 -217.20635796 563.53123093 C-221.22534675 563.54398145 -225.24408546 563.54276226 -229.26307397 563.53064021 C-230.7133569 563.52868518 -232.16365761 563.5317527 -233.61391557 563.54048458 C-245.00856315 563.60472077 -255.44472287 562.90273889 -264.03515625 554.62890625 C-271.47732577 546.62266031 -272.60075502 537.44405419 -272.56556702 526.90312195 C-272.56642144 525.96779989 -272.56727587 525.03247782 -272.56815618 524.06881267 C-272.56980382 520.93346959 -272.56430128 517.79817996 -272.55883789 514.6628418 C-272.55855584 512.41582745 -272.55871411 510.168813 -272.5592804 507.92179871 C-272.55956767 501.81897558 -272.55368223 495.71617206 -272.54670644 489.61335349 C-272.54046126 483.23652479 -272.53986818 476.85969566 -272.53868103 470.48286438 C-272.53592464 459.77885559 -272.52967559 449.07485456 -272.52075195 438.37084961 C-272.51157077 427.34643591 -272.50449339 416.32202417 -272.50024414 405.29760742 C-272.49998142 404.61788605 -272.49971869 403.93816467 -272.49944801 403.23784568 C-272.49814296 399.82783062 -272.49687925 396.41781554 -272.49563611 393.00780046 C-272.485272 364.72524637 -272.46683827 336.44270419 -272.4453125 308.16015625 C-292.5753125 308.16015625 -312.7053125 308.16015625 -333.4453125 308.16015625 C-326.6953142 300.28515823 -326.6953142 300.28515823 -323.15086365 296.74545288 C-321.95031342 295.54284065 -321.95031342 295.54284065 -320.72550964 294.31593323 C-319.86661636 293.46063522 -319.00772308 292.60533722 -318.12280273 291.72412109 C-316.74365189 290.34475121 -316.74365189 290.34475121 -315.3366394 288.93751526 C-312.83277382 286.43336454 -310.32585157 283.93229479 -307.81834292 281.43179274 C-305.18568741 278.80542706 -302.55590036 276.17619225 -299.92579651 273.54727173 C-294.94739018 268.57196559 -289.9664432 263.59921117 -284.98456103 258.62738574 C-279.33024867 252.98424257 -273.67876572 247.33826948 -268.02752769 241.69204783 C-258.36374424 232.03693802 -248.69785195 222.38394418 -239.02958679 212.73332214 C-235.90297827 209.61237906 -232.77648723 206.49133098 -229.65270996 203.36755371 C-227.41571916 201.13056291 -225.17531641 198.89704437 -222.93383789 196.66455078 C-218.66550615 192.4122169 -214.39938053 188.15768275 -210.13486576 183.90152168 C-207.56527443 181.33714898 -204.99475356 178.77372243 -202.42211914 176.21240234 C-199.91781408 173.71903337 -197.41602386 171.22316552 -194.91589165 168.72561264 C-193.51408381 167.32651873 -192.10974097 165.92996621 -190.70533752 164.53347778 C-186.0660575 159.89460318 -181.65208927 155.19369137 -177.4453125 150.16015625 C-175.79884565 148.47353167 -174.13348183 146.80503919 -172.4453125 145.16015625 C-171.115 143.76796875 -171.115 143.76796875 -169.7578125 142.34765625 C-167.4453125 140.16015625 -167.4453125 140.16015625 -165.4453125 140.16015625 C-165.21234026 139.60242208 -164.97936802 139.04468792 -164.73933601 138.47005272 C-163.11064652 135.5627608 -161.09800636 133.56093682 -158.74093628 131.20181274 C-158.0179257 130.47412219 -158.0179257 130.47412219 -157.28030884 129.73173082 C-155.66539479 128.10884552 -154.04343318 126.49319566 -152.42138672 124.87744141 C-151.26125759 123.71460189 -150.1015543 122.5513374 -148.94224548 121.38768005 C-145.79164667 118.22795664 -142.6347451 115.07460133 -139.47641516 111.9226079 C-136.16862903 108.61988618 -132.86572667 105.31228628 -129.56204224 102.00546265 C-124.00882396 96.44860399 -118.45139897 90.89597862 -112.89160156 85.34570312 C-106.47479951 78.93976432 -100.06520519 72.5266815 -93.65934932 66.10979807 C-88.15379169 60.59514405 -82.64432023 55.08442297 -77.13160145 49.57692754 C-73.84177449 46.29021011 -70.55329324 43.00217682 -67.26833725 39.71059036 C-64.17519735 36.61164418 -61.07715026 33.51768663 -57.97535896 30.42740059 C-56.84174204 29.29641368 -55.70979662 28.16374833 -54.57971382 27.02923012 C-46.78999538 19.21177859 -39.28985735 12.028658 -29.1328125 7.47265625 C-28.48691162 7.17794434 -27.84101074 6.88323242 -27.17553711 6.57958984 C-18.37383279 2.66844756 -9.57579317 0.62716856 0 0 Z " fill="#D9EF78" transform="translate(509.4453125,206.83984375)" data-darkreader-inline-fill="" style="--darkreader-inline-fill: var(--darkreader-background-D9EF78, #00434d); opacity: 1;" data-index="0"></path>
<path d="M0 0 C5.19934802 4.10550594 10.12092606 8.52232505 15 13 C13.35875777 17.1636715 10.3220403 19.98387091 7.21484375 23.0859375 C6.63972549 23.66534088 6.06460724 24.24474426 5.47206116 24.84170532 C4.25321456 26.06628774 3.03174814 27.28826742 1.80786133 28.5078125 C-0.04041787 30.35295534 -1.87503697 32.21093818 -3.70898438 34.0703125 C-9.71324284 40.10543411 -15.51890154 45.7833135 -23 50 C-23.51087158 49.61134766 -24.02174316 49.22269531 -24.5480957 48.82226562 C-25.89505121 47.80129387 -27.2485007 46.78887601 -28.60546875 45.78125 C-30.18177629 44.60866233 -31.74731456 43.42143389 -33.30078125 42.21875 C-49.01143209 30.49361615 -69.46474306 26.86348812 -88.6640625 29.50390625 C-108.85553231 33.42132002 -126.20465401 42.71522477 -138.05078125 59.84765625 C-149.52325183 78.40133112 -154.93110474 97.90504168 -150.8203125 119.76171875 C-146.92351536 135.14478936 -140.14108544 147.63459741 -129 159 C-128.33484375 159.70125 -127.6696875 160.4025 -126.984375 161.125 C-113.95305045 173.85789727 -95.75826983 178.82276129 -78 179.25 C-61.81781801 179.0575459 -42.96254974 174.96254974 -31 163 C-30.84021197 160.55416014 -30.74062855 158.13246453 -30.68359375 155.68359375 C-30.65561707 154.71202332 -30.65561707 154.71202332 -30.6270752 153.7208252 C-30.55859735 151.29319348 -30.49856383 148.86532952 -30.4375 146.4375 C-30.293125 141.013125 -30.14875 135.58875 -30 130 C-48.48 130 -66.96 130 -86 130 C-86.0309375 118.1509375 -86.0309375 118.1509375 -86.0625 106.0625 C-86.071604 103.5656665 -86.08070801 101.06883301 -86.09008789 98.49633789 C-86.0930069 96.53011123 -86.09555549 94.56388396 -86.09765625 92.59765625 C-86.10277222 91.56636597 -86.10788818 90.53507568 -86.11315918 89.47253418 C-86.11334045 88.01091858 -86.11334045 88.01091858 -86.11352539 86.51977539 C-86.115746 85.66928116 -86.11796661 84.81878693 -86.12025452 83.94252014 C-86 82 -86 82 -85 81 C-81.89104971 80.88864285 -78.80411228 80.84259322 -75.69433594 80.83886719 C-74.22849815 80.83141983 -74.22849815 80.83141983 -72.73304749 80.82382202 C-69.48348295 80.80915575 -66.23396726 80.80239028 -62.984375 80.796875 C-60.73333738 80.79112633 -58.48229978 80.78536856 -56.23126221 80.77960205 C-51.50329357 80.76907874 -46.77534199 80.76324508 -42.04736328 80.75976562 C-35.98652333 80.75428428 -29.92590842 80.7302694 -23.86513901 80.70179367 C-19.21202943 80.68317473 -14.55897407 80.67796204 -9.90583038 80.67642975 C-7.67149884 80.67339999 -5.43716833 80.66536064 -3.20287323 80.65224457 C-0.07615548 80.63520318 3.05001255 80.63706006 6.17675781 80.64355469 C7.10163498 80.6343399 8.02651215 80.62512512 8.97941589 80.6156311 C13.79262356 80.64697311 17.13405749 80.79885552 21 84 C23.6353409 87.95301135 23.3332325 91.4007758 23.36987305 95.99438477 C23.38462173 96.91510269 23.39937042 97.83582062 23.41456604 98.78443909 C23.45914687 101.83675031 23.4873345 104.88886978 23.51171875 107.94140625 C23.52111795 108.98529951 23.53051716 110.02919277 23.54020119 111.10471916 C23.58779929 116.63400322 23.62146777 122.16319205 23.64526367 127.69262695 C23.67292371 133.3904926 23.75204316 139.08642704 23.84280682 144.78358555 C23.90277273 149.17527453 23.92254558 153.56650914 23.93177223 157.95857048 C23.94332394 160.05771742 23.97008932 162.15684044 24.01270103 164.25558662 C24.36539066 182.72718792 24.36539066 182.72718792 18.61083984 189.19116211 C17.11278564 190.50643955 15.58012097 191.78454171 14 193 C13.10152344 193.928125 12.20304688 194.85625 11.27734375 195.8125 C3.86804652 202.7393889 -4.20469317 207.99968591 -13 213 C-13.64598145 213.36899414 -14.29196289 213.73798828 -14.95751953 214.11816406 C-46.0885311 231.57051769 -83.49277528 234.46153228 -117.625 224.875 C-136.74334205 219.06801634 -154.71132546 208.95956879 -169 195 C-169.86625 194.154375 -170.7325 193.30875 -171.625 192.4375 C-172.800625 191.2309375 -172.800625 191.2309375 -174 190 C-174.56847656 189.47664062 -175.13695312 188.95328125 -175.72265625 188.4140625 C-197.6095667 167.78902164 -208.99213227 136.04602736 -210.2265625 106.48828125 C-210.5035684 95.70056343 -209.48275439 85.49550206 -207 75 C-206.83371094 74.29633301 -206.66742188 73.59266602 -206.49609375 72.86767578 C-203.77811932 61.8120631 -199.55748176 51.91754101 -194 42 C-193.46761719 41.04867187 -192.93523437 40.09734375 -192.38671875 39.1171875 C-185.49804683 27.66455677 -176.59978758 16.20837209 -166 8 C-165.30390625 7.39542969 -164.6078125 6.79085938 -163.890625 6.16796875 C-118.09855702 -32.78602196 -48.6704869 -34.76113517 0 0 Z " fill="#D9EF78" transform="translate(593,428)" data-darkreader-inline-fill="" style="--darkreader-inline-fill: var(--darkreader-background-D9EF78, #00434d);" data-index="1"></path>
</svg>